<svg width="38" height="48" viewBox="0 0 38 48" fill="none" xmlns="http://www.w3.org/2000/svg">
<g clip-path="url(#clip0_3_321)">
<path d="M28.3417 23.1083C28.1899 27.6333 27.0486 32.1167 24.8122 36.125C24.5615 36.575 24.225 36.9917 23.8556 37.2833C23.6379 37.4583 23.2882 37.6167 23.0177 37.3667C22.7077 37.075 22.7736 36.6833 22.8066 36.3417C22.8462 35.9667 23.0441 35.6167 23.1959 35.2667C24.9705 31.2583 26.2636 27.0583 26.2899 22.375C26.3097 19.0917 25.4851 16.125 24.1986 13.325C23.9479 12.7833 23.684 12.225 23.5389 11.6417C23.3806 11.0167 23.5389 10.7583 23.717 10.6083C24.0007 10.375 24.3636 10.5583 24.5285 10.775C24.9903 11.35 25.3795 12.025 25.7688 12.6917C27.5038 15.6833 28.3417 19.05 28.3417 23.1083Z" fill="white"/>
<path d="M10.8327 29.8833C10.6018 29.85 10.3379 29.8083 10.1598 29.675C9.73755 29.3583 9.65839 29.0333 9.65839 28.7C9.65839 28.2333 9.94207 27.95 10.1862 27.85C10.6282 27.6667 11.1626 27.675 11.631 27.6833C13.7751 27.7167 15.9257 27.7667 18.0698 27.875C18.6636 27.9083 19.4223 27.8583 19.5344 28.9583C19.607 29.6667 19.0726 30.075 18.0435 30.1C16.8164 30.1333 12.3237 30.1083 10.8327 29.8833Z" fill="white"/>
<path d="M13.6497 18.3333C12.7327 18.3333 11.8157 18.3583 10.8921 18.325C10.3841 18.3083 9.82335 18.2333 9.76398 17.4C9.7112 16.5917 10.2192 16.275 10.7404 16.25C13.0164 16.15 15.2924 16.0917 17.5619 16.0833C18.2414 16.0833 18.4393 16.5667 18.4657 17.025C18.5053 17.7583 18.0765 18.05 17.5751 18.1083C16.2754 18.25 13.6563 18.375 13.6497 18.3333Z" fill="white"/>
</g>
<defs>
<clipPath id="clip0_3_321">
<rect width="48" height="38" fill="white" transform="translate(0 48) rotate(-90)"/>
</clipPath>
</defs>
</svg>
