<svg width="65" height="99" viewBox="0 0 65 99" fill="none" xmlns="http://www.w3.org/2000/svg">
<path d="M26.9669 33.4322C27.737 32.0141 28.5543 30.521 28.9135 28.7848C29.0685 28.0303 28.909 27.5598 28.5902 26.944C27.041 23.9487 25.4895 20.9511 24.0615 17.8945C22.7615 15.1151 21.6433 12.2539 20.9136 9.2518C20.4376 7.29055 20.3949 5.32249 20.8732 3.36578C21.2998 1.61361 22.2563 0.304597 24.1378 0.0364309C24.7598 -0.0522003 25.458 0.0250679 26.0575 0.222784C28.7406 1.1091 30.8961 2.74082 32.4723 5.12477C34.2416 7.79961 35.9974 10.4858 37.7599 13.1652C37.8363 13.2811 37.9238 13.3902 38.063 13.5811C38.218 12.3993 38.2988 11.2971 38.5211 10.2245C38.8175 8.77683 39.1251 7.31782 39.6055 5.927C40.2073 4.18619 41.4175 2.86581 42.8971 1.79769C43.9816 1.01592 45.2255 0.752298 46.4963 0.870473C47.0868 0.925015 47.729 1.3159 48.1937 1.72951C50.1763 3.49077 51.0228 5.84973 51.4786 8.40867C51.8917 10.7267 51.629 13.0107 51.3236 15.3083C51.1126 16.8923 50.7983 18.4376 50.2235 19.9285C50.0169 20.4671 49.8216 21.0125 49.6779 21.5715C49.121 23.7441 48.1286 25.7349 47.1721 27.7394C47.006 28.0871 47.0172 28.3302 47.1968 28.6416C48.5126 30.9233 49.8597 33.1868 51.1036 35.5071C51.611 36.4525 52.0826 36.9502 53.2972 36.9638C55.6997 36.9888 57.707 38.1592 59.1754 40.0727C60.1453 41.3363 61.0682 42.6862 61.7328 44.1293C63.3112 47.5518 64.3575 51.1539 64.5438 54.9605C64.7235 58.608 64.9839 62.2578 64.9996 65.9099C65.0109 68.6688 64.7639 71.4345 64.4989 74.1844C64.2744 76.5206 63.8546 78.8387 63.5312 81.1658C63.4661 81.6339 63.4392 82.1066 63.4212 82.5793C63.3696 83.9383 62.9003 85.1019 61.9326 86.0655C61.1063 86.8905 60.334 87.7699 59.5099 88.5949C59.0339 89.0721 58.5153 89.513 57.9921 89.9357C56.1645 91.4175 54.3256 92.8787 52.206 93.94C50.8387 94.6241 49.5566 95.49 48.1735 96.1331C43.2429 98.4261 38.1282 99.6079 32.6631 98.6852C31.3631 98.4648 30.0002 98.6102 28.707 98.3602C25.375 97.7125 22.2046 96.5353 19.0702 95.215C16.7778 94.2491 14.7346 92.9719 12.8688 91.3288C11.4251 90.0584 9.88929 88.8903 8.37148 87.7086C7.05126 86.6791 5.91739 85.4792 4.93621 84.1179C2.10716 80.1999 0.616292 75.8025 0.153765 70.9868C-0.194253 67.378 0.0886522 63.8395 0.600576 60.2602C1.2764 55.5491 2.19023 50.8676 2.50233 46.1019C2.63255 44.1157 2.88627 42.1249 3.24102 40.1659C3.64293 37.9388 4.51185 35.8548 5.61653 33.889C6.64037 32.0687 8.11552 30.796 10.2036 30.3983C10.5943 30.3233 11.0276 30.3119 11.4138 30.3983C13.4391 30.8505 15.3565 31.5096 16.5173 33.564C16.7621 32.9209 16.9305 32.3664 17.1752 31.8505C18.5673 28.8847 20.9069 28.0893 23.7359 28.9075C24.3489 29.0847 24.9529 29.6915 25.3211 30.2597C25.9745 31.2687 26.4415 32.4004 26.9601 33.4277L26.9669 33.4322ZM4.17281 49.9131C3.93481 51.4698 3.66313 52.9492 3.49025 54.4423C3.28144 56.2445 3.26348 58.0762 2.97608 59.8625C2.35189 63.7463 2.34516 67.6211 2.7044 71.5277C3.11304 75.9797 4.80374 79.8568 7.60135 83.252C8.38944 84.2088 9.3594 85.0269 10.3136 85.8269C11.5665 86.8814 12.9204 87.8131 14.1688 88.8722C16.0256 90.4493 17.988 91.7674 20.3051 92.6083C24.286 94.0537 28.2444 95.5013 32.5554 95.4581C32.8383 95.4559 33.1234 95.5172 33.4063 95.549C35.2295 95.7581 37.0459 95.9536 38.8871 95.6331C42.1899 95.0582 45.3288 94.0059 48.306 92.4606C49.121 92.0379 49.8575 91.4606 50.6793 91.0561C52.6933 90.0675 54.485 88.7358 56.2071 87.3245C57.4196 86.3314 58.4928 85.1587 59.611 84.0474C59.7592 83.902 59.8557 83.6656 59.9006 83.4566C60.3587 81.2999 60.9155 79.1568 61.2276 76.9774C62.1167 70.7278 62.2941 64.4418 61.9326 58.1353C61.7395 54.7696 61.497 51.4289 60.3946 48.2018C59.6267 45.9565 58.6994 43.8134 57.1704 41.9931C55.8142 40.3773 54.11 39.5705 51.9613 39.9477C51.1193 40.0955 50.2661 40.2932 49.4174 40.2886C46.4716 40.2682 43.6538 41.1454 40.7596 41.4749C40.5935 41.4931 40.3802 41.6908 40.3106 41.8567C39.9311 42.7703 39.3586 42.9544 38.5323 42.4226C38.3774 42.3226 38.1079 42.2771 37.9463 42.3408C35.957 43.1385 33.9362 43.8839 32.4184 45.5292C32.2545 45.7088 32.0434 45.8497 31.8369 45.9815C30.7412 46.6883 30.2248 47.7609 29.9823 48.9949C29.65 50.6857 30.5795 52.4652 32.0637 52.7629C33.3569 53.022 34.6861 53.1765 36.0041 53.2038C38.1686 53.2492 40.0793 52.297 41.9766 51.3812C42.6771 51.0425 43.2676 51.0357 43.7369 51.4721C44.1859 51.8879 44.3004 52.5334 44.0063 53.1833C43.1082 55.1718 42.1764 57.1445 41.303 59.1421C39.7201 62.76 38.8758 66.5416 39.0959 70.5141C39.271 73.6571 40.2567 76.6251 41.2536 79.5727C41.6802 80.834 42.5064 81.8817 43.4562 82.8134C44.2825 83.6247 45.2277 84.2088 46.3885 84.3565C47.6391 84.5156 48.8965 84.6247 50.1449 84.8042C50.4233 84.8451 50.823 85.0337 50.8993 85.2496C50.9779 85.4769 50.814 85.9064 50.6141 86.0905C50.3267 86.3564 49.9293 86.595 49.5499 86.6518C47.0037 87.0359 44.5362 86.9155 42.3717 85.2633C40.3712 83.7384 38.9881 81.7498 38.2314 79.3432C37.6701 77.5546 37.1515 75.7479 36.7046 73.9276C36.1343 71.6027 36.0333 69.2347 36.3454 66.8553C36.8326 63.1418 37.7442 59.5648 39.6168 56.29C39.7784 56.0059 39.8795 55.6855 40.0703 55.2355C37.385 56.1831 34.8343 56.1286 32.2433 55.6309C30.0272 55.2037 28.4645 54.0674 27.7213 51.8789C27.5372 51.3357 27.4092 50.7721 27.261 50.238C26.8097 51.1039 26.3831 51.9675 25.9116 52.8083C24.9888 54.4537 23.5473 55.14 21.7129 54.8673C20.9877 54.7605 20.258 54.6537 19.5283 54.6105C18.1272 54.5287 17.0966 53.8606 16.3737 52.672C16.1648 52.3288 15.9807 51.972 15.7517 51.5607C15.6799 51.7425 15.635 51.8539 15.5901 51.9652C14.7144 54.1492 12.3883 55.4218 10.1161 54.9173C7.72933 54.3878 5.98026 52.9538 4.70719 50.8812C4.51634 50.5721 4.35468 50.2449 4.16832 49.9062L4.17281 49.9131ZM50.5019 37.1911C50.0169 36.5411 49.5903 36.0184 49.2198 35.4571C47.2283 32.4618 45.2479 29.4597 43.2676 26.4576C38.9656 19.933 34.6839 13.397 30.3505 6.89512C29.6971 5.91563 28.9045 4.96569 27.9907 4.24528C27.1465 3.57941 26.071 3.18397 25.0539 2.784C24.4297 2.53856 23.9964 2.8249 23.7718 3.48396C23.6147 3.94757 23.5249 4.44072 23.4553 4.92933C23.1297 7.17238 23.6641 9.30407 24.4993 11.3335C26.0171 15.0265 27.5417 18.7262 29.2885 22.3101C30.4291 24.6464 31.9626 26.7894 33.3345 29.0097C35.2362 32.0891 37.1582 35.1548 39.0555 38.2387C39.2575 38.566 39.4371 38.691 39.8301 38.6137C40.7506 38.4319 41.6847 38.3274 42.6075 38.1592C44.8528 37.7479 47.0868 37.2479 49.3927 37.3274C49.7115 37.3388 50.0349 37.2524 50.5064 37.1933L50.5019 37.1911ZM17.4065 44.2498C17.4514 45.0088 17.4379 46.0906 17.5996 47.145C17.7927 48.4018 18.089 49.6472 18.4326 50.8721C18.6638 51.6948 19.2566 52.1402 20.1659 52.1652C20.8126 52.1834 21.457 52.3334 22.0991 52.4402C22.8333 52.5629 23.3901 52.347 23.837 51.7084C24.7194 50.4471 25.1078 49.0222 25.4491 47.5382C26.08 44.7906 26.4078 42.059 25.6399 39.2864C25.5815 39.0728 25.5568 38.8296 25.5928 38.6114C25.6332 38.3546 25.6848 38.041 25.8532 37.8797C26.1182 37.6229 26.0755 37.3956 25.9902 37.1093C25.815 36.5184 25.705 35.9002 25.476 35.3298C24.9708 34.0754 24.4252 32.8345 23.8527 31.6096C23.7247 31.3346 23.4508 31.0551 23.1768 30.9392C21.8589 30.3847 19.9953 31.0573 19.4991 32.3914C18.8704 34.0822 18.2485 35.8139 17.9476 37.5842C17.5951 39.6682 17.5883 41.8135 17.4087 44.2475L17.4065 44.2498ZM15.2892 49.9994C15.1724 49.0836 15.0422 48.2473 14.9659 47.4064C14.6358 43.7952 15.2443 40.2454 15.6821 36.6888C15.7495 36.1366 15.6776 35.7003 15.388 35.2389C14.5999 33.9776 13.3987 33.4277 12.0358 33.0595C11.1062 32.8095 10.2822 32.9141 9.56597 33.5208C9.08773 33.9254 8.58254 34.3731 8.29065 34.9117C6.46075 38.291 5.36955 41.8522 5.95556 45.7701C6.26317 47.8223 6.91654 49.7335 8.62071 51.0289C10.6482 52.5697 11.8404 52.3379 13.1966 50.8789C13.7422 50.2926 14.3978 49.8903 15.2869 49.9994H15.2892ZM45.5263 25.5713C45.8564 24.8713 46.182 24.3146 46.3885 23.7169C47.5875 20.258 48.9077 16.8423 49.1861 13.1198C49.3051 11.5244 49.3837 9.95176 49.1143 8.37685C48.8 6.54287 48.2611 4.80206 46.8645 3.47487C46.6939 3.31124 46.4469 3.07262 46.2695 3.09989C45.5555 3.20443 44.7719 3.24761 44.1702 3.59304C43.0812 4.21573 42.1854 5.12932 41.6937 6.33152C41.267 7.37464 40.8764 8.44049 40.5777 9.52679C40.0973 11.2699 39.7268 13.0448 39.2598 14.7947C39.1542 15.1924 39.1632 15.4787 39.3788 15.8219C41.0807 18.5126 42.7646 21.217 44.4576 23.9146C44.7832 24.4327 45.1199 24.9441 45.5241 25.5713H45.5263ZM28.2983 45.7338C30.6648 43.0657 33.3143 40.7931 36.8102 39.6977C34.6861 36.2957 32.6519 33.0368 30.6177 29.7756C30.2831 30.9664 29.9845 32.0255 29.6904 33.089C29.4838 33.8367 29.2683 34.5799 29.0887 35.3344C28.8462 36.3525 28.6127 37.3706 28.4196 38.4001C28.314 38.9614 28.1479 39.575 28.2714 40.1045C28.7137 41.9976 28.5206 43.8702 28.2983 45.736V45.7338Z" fill="white"/>
</svg>
