<svg width="32" height="33" viewBox="0 0 32 33" fill="none" xmlns="http://www.w3.org/2000/svg">
<path d="M7.0391 10.3957C6.99562 11.0044 7.25566 11.7341 7.42581 12.3035C7.73611 13.342 8.2895 14.2756 8.76643 15.2426C9.15086 16.022 9.5845 16.7895 9.93518 17.5844C10.2857 18.3788 10.8022 19.0439 11.293 19.7543C12.1734 21.0285 12.8413 22.4181 13.5746 23.7761C14.0559 24.6673 14.289 25.5515 15.1602 26.1738" stroke="#F8F8F8" stroke-width="3" stroke-linecap="round"/>
<path d="M8.74065 9.54495C10.4241 12.8201 12.0014 16.1363 13.6133 19.4449C13.8712 19.9744 14.0811 20.51 14.2148 21.0863C14.5273 22.4323 14.6574 23.8286 15.0656 25.1511C15.1004 25.2637 15.158 26.0521 15.2891 26.0792C15.5182 26.1266 15.8757 25.8995 16.084 25.8257C16.4687 25.6895 16.7404 25.4664 16.9992 25.1511C17.2273 24.8734 17.3963 24.5555 17.5879 24.2531C17.6645 24.1321 17.7311 23.927 17.6953 24.1886C17.6261 24.6935 17.5209 25.1918 17.4074 25.6882C17.3604 25.8938 17.3366 26.42 17.1324 26.5562C16.6904 26.8508 17.1065 24.8026 17.1238 24.7128C17.588 22.3101 18.5292 20.0901 19.5601 17.8851C19.8853 17.1897 20.1676 16.4411 20.5398 15.7711C20.8343 15.2411 21.2166 14.7256 21.3863 14.1383C21.5552 13.5537 21.7028 12.9825 21.9234 12.4153C22.2361 11.6112 22.027 14.1603 21.8375 15.002C21.4923 16.5344 21.0343 18.1056 20.4625 19.5695C20.1824 20.2866 19.664 20.8663 19.2593 21.516C19.1434 21.7022 18.5927 22.848 18.3312 22.848C17.9778 22.848 19.0444 20.256 19.1218 20.0894C20.0906 18.0063 20.8484 15.8239 20.8836 13.5067C20.8894 13.1242 21.089 11.7918 20.6515 11.5731C20.2722 11.3834 19.2809 13.2635 19.139 13.4895C18.3289 14.7805 17.7477 16.2155 17.4418 17.709C17.162 19.075 16.9205 20.4662 16.5566 21.8125C16.49 22.0588 16.227 23.1756 15.8906 22.4355C15.4866 21.5467 15.4772 20.3993 15.4266 19.4449C15.3809 18.5848 15.3724 17.7054 15.5941 16.8668C15.74 16.3149 15.9314 15.2727 16.3805 14.8645C16.4887 14.7661 16.6183 14.7387 16.75 14.6797C17.0877 14.5283 17.3741 14.2504 17.6523 14.0137C18.1189 13.6166 18.7793 13.1525 19.1218 12.6387C19.2225 12.4877 19.4452 12.4641 19.5515 12.3121C19.6072 12.2326 19.4565 12.1848 19.4097 12.1789C19.0922 12.1392 18.8056 12.2371 18.5375 12.4067C17.2971 13.191 16.3454 14.3839 15.3191 15.4102C15.1696 15.5597 14.27 16.5538 14.1117 16.0934C13.656 14.7676 13.9074 13.4014 13.609 12.0586C13.4903 11.5245 12.9718 11.0126 12.5649 10.6707C11.8777 10.0935 11.1251 9.51009 10.2531 9.23558C9.86531 9.11348 9.3798 9.06989 8.97268 9.08089C8.45144 9.09498 8.28959 10.004 8.23362 10.3957C8.09863 11.3407 8.09967 12.4806 8.21644 13.4293C8.28637 13.9975 8.43847 14.4975 8.6805 15.0191C9.45664 16.6922 10.1862 18.4038 10.425 20.2613C10.5363 21.1269 10.0001 19.9431 9.86643 19.7199C9.52179 19.1444 9.19532 18.5429 8.79221 18.0055C8.64269 17.8061 8.44051 17.6377 8.35393 17.3996C8.25615 17.1307 8.12972 16.8395 8.00159 16.5832C7.92393 16.4279 7.80802 16.0459 7.69222 15.9301C7.54524 15.7831 7.56468 15.6799 7.62347 15.4531C7.73076 15.0393 7.74722 14.6247 7.81683 14.207C7.8762 13.8508 8.19241 14.825 8.35393 15.1481C8.76179 15.9638 9.14693 16.7873 9.59143 17.5844C10.189 18.656 10.8002 19.7199 11.4004 20.7898C11.5979 21.1419 11.7097 21.3317 11.9891 21.5761C12.2933 21.8423 12.4466 22.1328 12.6852 22.4613C13.376 23.4128 13.504 24.4564 14 25.4777C14.2746 26.043 14.1607 25.321 14.1547 24.9793C14.1067 22.2562 13.3693 19.59 13.3082 16.8711C13.27 15.1696 13.2298 13.3627 11.6797 12.3293" stroke="#FF0000" stroke-width="3" stroke-linecap="round"/>
<path d="M15.3356 11.4432C16.1568 10.617 16.7544 9.90145 17.4531 9.33517C19.7534 7.45936 22.1803 7.82177 23.9047 10.2412C25.6587 12.7191 25.9178 15.458 25.0326 18.2801C23.6429 22.7254 21.2902 26.6534 18.2206 30.1483C17.4694 31.0011 16.8433 31.265 15.5603 30.3619C10.7873 27.0393 7.62306 22.4996 5.21173 17.4001C4.4383 15.7526 4.17909 13.7822 4.07945 11.9315C3.96587 9.81377 4.95299 8.05593 7.05856 7.19987C9.30696 6.29679 11.3069 6.86448 12.9714 8.48088C13.8496 9.32657 14.5013 10.3831 15.3356 11.4432ZM16.259 28.0299C19.1878 24.3352 21.6661 20.5045 22.5975 15.9131C22.8045 14.8674 22.6115 13.646 22.2586 12.6158C21.4369 10.2216 19.9625 9.92697 18.1506 11.6963C17.7159 12.1202 17.3367 12.6148 16.9857 13.1036C15.537 15.1266 14.7743 15.1547 13.1463 13.2316C12.2558 12.1831 11.4323 11.0329 10.3694 10.2018C8.49502 8.7342 6.3686 9.68842 6.44628 12.0306C6.50321 13.7024 6.96069 15.4677 7.66476 17.0063C9.6432 21.2857 13.0588 24.4831 16.259 28.0299Z" fill="#FF0000"/>
<path d="M6.40961 11.1678C6.67885 11.6333 6.83072 12.0252 6.94112 12.5471C7.01103 12.8776 7.08365 13.2024 7.16074 13.5311C7.24493 13.89 7.35841 14.2353 7.35841 14.6072" stroke="#FF0000" stroke-width="3" stroke-linecap="round"/>
</svg>
