<svg width="95" height="103" viewBox="0 0 95 103" fill="none" xmlns="http://www.w3.org/2000/svg">
<path d="M9 4C9.90212 9.4654 15.5999 13.4658 20.0021 16.4978C33.0429 25.4795 47.9856 32.5246 63.5807 36.3133C71.5653 38.2531 82.6043 41 91 41" stroke="#2AE19D" stroke-width="7" stroke-linecap="round"/>
<path d="M22.2825 25C0.334307 46.1391 -7.83087 92.9373 32.2464 98.6558C52.0195 101.477 61.7842 86.4607 70.3987 71.6705C74.7301 64.2339 79 48.2686 79 39.764" stroke="#2AE19D" stroke-width="7" stroke-linecap="round"/>
<path d="M52.2823 34C48.5179 34.4706 43.2219 49.0377 41.1882 52.3141C36.0928 60.5234 29.0512 69.1574 25.3395 78.0242C22.6678 84.4066 21.1137 89.4688 19 95.81" stroke="#2AE19D" stroke-width="7" stroke-linecap="round"/>
</svg>
