<svg width="79" height="79" viewBox="0 0 79 79" fill="none" xmlns="http://www.w3.org/2000/svg">
<path d="M37.9613 38.6318C38.0497 38.0258 38.0876 37.5368 38.2006 37.0528C39.326 32.1628 41.4764 27.6921 44.0049 23.395C44.3026 22.8923 44.6891 22.4056 45.1397 22.0618C45.3822 21.8757 45.9019 21.8483 46.2136 21.9787C46.4476 22.0795 46.656 22.5437 46.634 22.8196C46.5998 23.3455 46.4683 23.8936 46.2568 24.3876C44.8681 27.6496 43.4659 30.9005 42.0379 34.1416C41.5003 35.3526 40.9246 36.5549 40.3612 37.756C40.1779 38.1601 39.9688 38.5543 39.7448 38.9251C39.5012 39.3477 39.0937 39.625 38.6367 39.4098C38.3361 39.2658 38.0158 39.1737 37.9613 38.6318Z" fill="#3F5BF6"/>
<path d="M57.2436 55.2158C56.6426 55.1767 55.9455 55.1722 55.2656 55.0913C52.583 54.764 49.9005 54.4366 47.2277 54.0834C46.6476 54.0049 46.0699 53.8266 45.5377 53.6065C44.8245 53.3175 44.5397 52.8361 44.5948 52.2707C44.65 51.7054 45.0586 51.316 45.8332 51.2257C46.3615 51.1601 46.9293 51.1154 47.4466 51.1878C50.8436 51.6921 54.243 52.221 57.6314 52.7635C58.0108 52.8249 58.4099 52.9589 58.7179 53.1767C59.4929 53.7083 59.3666 54.6789 58.4788 55.0045C58.1303 55.1266 57.7202 55.1306 57.2436 55.2158Z" fill="#3F5BF6"/>
<path d="M19.3178 25.6787C19.3089 25.0949 19.3738 24.5037 19.4646 23.9224C19.5493 23.4038 19.8582 23.012 20.4075 22.907C20.8717 22.823 21.4237 23.2402 21.5595 23.8485C21.741 24.6637 21.9114 25.4925 21.9575 26.3213C22.0968 28.8201 22.1881 31.3362 22.2658 33.8412C22.2872 34.6725 22.2594 35.5088 22.2069 36.3475C22.1861 36.6357 22.1173 36.9412 21.9795 37.179C21.6116 37.8504 20.8185 37.8804 20.4425 37.234C20.2317 36.8696 20.1108 36.409 20.0687 35.9903C19.8684 34.6172 19.3633 27.7391 19.3178 25.6787Z" fill="#3F5BF6"/>
</svg>
