<svg width="92" height="92" viewBox="0 0 92 92" fill="none" xmlns="http://www.w3.org/2000/svg">
<path d="M44.8794 46.5C44.3668 46.165 43.9391 45.925 43.5475 45.6189C39.5841 42.5414 36.4323 38.7104 33.5969 34.6093C33.2661 34.1277 32.987 33.5725 32.8645 33.0191C32.7977 32.7208 32.9914 32.2377 33.2407 32.0098C33.4307 31.8399 33.9395 31.846 34.1805 31.982C34.6433 32.2342 35.0853 32.584 35.4445 32.9836C37.8201 35.6153 40.1799 38.2546 42.5199 40.9132C43.3925 41.9102 44.2413 42.9381 45.0941 43.9544C45.3836 44.2906 45.6533 44.6461 45.8956 45.0053C46.1766 45.404 46.2568 45.8903 45.8693 46.2145C45.6123 46.4266 45.394 46.6784 44.8794 46.5Z" fill="white"/>
<path d="M68.0346 35.9797C67.7464 36.5086 67.4491 37.1391 67.0898 37.7219C65.6647 40.0181 64.2396 42.3143 62.7952 44.5907C62.48 45.084 62.0753 45.5332 61.6518 45.9234C61.0896 46.449 60.5331 46.5049 60.0434 46.2172C59.5536 45.9294 59.3722 45.3949 59.616 44.6541C59.7787 44.1472 59.9769 43.6133 60.2601 43.1744C62.1462 40.3045 64.0557 37.4427 65.9728 34.5966C66.188 34.2782 66.4774 33.9725 66.8045 33.7846C67.6128 33.3051 68.4402 33.8278 68.3623 34.7702C68.3266 35.1378 68.1576 35.5115 68.0346 35.9797Z" fill="white"/>
<path d="M25.2872 57.9677C24.7538 57.7303 24.2447 57.4227 23.7554 57.0959C23.3206 56.801 23.095 56.3559 23.2307 55.8135C23.3498 55.3569 23.9604 55.0316 24.5694 55.1642C25.3854 55.3423 26.209 55.5362 26.9803 55.843C29.306 56.7675 31.6272 57.7427 33.9326 58.7256C34.6958 59.0558 35.4428 59.4327 36.1817 59.8331C36.4345 59.9731 36.6827 60.164 36.8404 60.389C37.2949 61.0051 36.9886 61.7373 36.244 61.8066C35.8247 61.8446 35.356 61.7607 34.9584 61.6228C33.6284 61.2271 27.1757 58.7929 25.2872 57.9677Z" fill="white"/>
</svg>
