<svg width="104" height="104" viewBox="0 0 104 104" fill="none" xmlns="http://www.w3.org/2000/svg">
<path d="M46.6194 75.1655C37.6819 83.2363 27.2458 89.2127 17.1708 95.7308C16.1236 96.4169 14.8417 96.9586 13.6139 97.1211C11.5555 97.41 10.1292 95.5141 10.9055 93.6363C12.4944 89.7363 13.9028 85.728 15.8708 82.0266C20.168 73.9016 24.718 65.903 29.2861 57.9405C30.0264 56.6405 29.9542 55.9183 29.0333 54.7808C22.3167 46.5475 15.6542 38.2419 9.00971 29.9363C8.35971 29.1238 7.76388 28.1127 7.60138 27.1197C7.33055 25.4766 8.59444 24.4836 10.725 24.5016C17.6222 24.5377 24.5194 24.7725 31.4167 24.6461C37.5917 24.5197 43.7667 24.0683 49.9236 23.635C50.718 23.5808 51.7472 23.0752 52.1805 22.4433C55.4486 17.803 58.5542 13.0544 61.8403 8.43218C62.4 7.63773 63.8805 6.66273 64.4222 6.91551C65.2889 7.31273 66.2278 8.63079 66.2639 9.60579C66.4625 13.5419 66.3542 17.4961 66.3542 21.7211C69.1708 21.4863 71.6444 21.3238 74.118 21.0891C80.0583 20.5475 85.9806 19.9155 91.9208 19.4641C93.2389 19.3738 95.0444 19.4461 95.8208 20.2405C97.1208 21.5766 95.9472 23.2377 95.0625 24.5197C88.7792 33.5836 81.6111 41.9072 73.8833 49.7613C71.8792 51.8016 69.1708 53.6433 68.2861 56.1169C67.4194 58.5183 68.5028 61.6238 68.7194 64.4225C69.3153 72.0961 69.9292 79.7516 70.4528 87.4252C70.5611 88.9058 70.6514 90.5669 70.1097 91.885C69.6764 92.9322 68.2861 94.0697 67.275 94.2502C64.8375 94.6475 50.718 78.5961 46.6194 75.1655ZM60.2333 28.3294C57.5972 28.6002 55.25 28.7808 52.9028 29.1238C52.2889 29.2141 51.5305 29.6655 51.2236 30.1891C46.6736 37.9169 42.1597 45.6808 37.7 53.4447C37.4472 53.8961 37.375 54.7988 37.6458 55.1419C40.8958 59.2044 44.2361 63.1947 47.7028 67.3655C51.9278 63.6822 55.9722 60.2516 59.8903 56.6766C60.4139 56.2072 60.6125 55.16 60.6125 54.3836C60.5583 50.7905 60.2875 47.2155 60.2333 43.6225C60.1792 38.6391 60.2333 33.6197 60.2333 28.3294ZM15.943 29.3766C21.9555 36.4725 27.8597 43.4419 33.9805 50.6641C38.6028 43.6044 43.1347 36.6711 47.9014 29.3766C36.9417 29.3766 26.5417 29.3766 15.943 29.3766ZM91.3792 23.4544C91.1986 23.1655 74.6958 25.6572 66.3542 27.2641C66.7153 34.6127 67.0764 41.7627 67.4375 48.9127C67.7083 49.003 83.6694 32.0308 91.3792 23.4544ZM43.1347 71.1572C39.9028 67.4738 36.9778 64.1516 33.8722 60.5947C29.593 68.81 21.4861 84.8975 21.5944 84.9877C28.6903 80.4377 35.7861 75.8697 43.1347 71.1572ZM63.1042 83.2183C63.3028 83.0738 61.6958 68.9905 61.1 62.1113C57.5792 65.3613 54.4194 68.2683 51.675 70.7961C55.2319 74.6961 59.6194 79.3544 63.1042 83.2183ZM55.8097 23.0211C57.7597 22.8044 59.15 22.66 60.6486 22.4975C60.8472 20.1863 61.0097 18.0558 61.1903 15.9252C61.0278 15.8891 60.8653 15.835 60.7208 15.7988C59.1861 18.0558 57.6514 20.3127 55.8097 23.0211Z" fill="#B38FFF"/>
</svg>
