<svg width="240" height="240" viewBox="0 0 240 240" fill="none" xmlns="http://www.w3.org/2000/svg">
<path d="M188.5 104.791C183.458 107.666 179.25 110.208 174.917 112.499C167.583 116.416 160.167 119.958 151.625 120.541C142.958 121.124 136.167 117.833 132.083 110.374C129.583 105.791 128.333 100.541 126.708 95.5409C126.083 93.5826 126 91.4159 125.5 88.3743C123 92.2076 121.083 95.2493 119.042 98.2076C114.083 105.458 109.417 112.916 104 119.791C96.625 129.249 87.3334 130.041 78.0834 122.291C74.4584 119.249 71.5417 115.291 68.3334 111.708C67.375 110.624 66.5834 109.416 65.5417 108.041C63.6667 116.166 62 123.916 60.0417 131.541C55.4584 149.333 41.2084 148.708 31.0834 140.916C28.375 138.833 26.125 136.041 23.9167 133.374C22.5 131.541 22.2084 129.166 24.25 127.624C26.0834 126.208 28 127.208 29.5834 128.708C31.1667 130.166 32.6667 131.749 34.375 132.999C36.375 134.458 38.4167 135.916 40.6667 136.958C47 139.874 51.25 138.374 53.8334 131.874C55.6667 127.291 56.8334 122.416 58.0417 117.624C59.1667 113.166 60.0834 108.624 61 104.083C61.5 101.749 62.0834 99.4159 64.625 98.6243C67.5417 97.7076 69.2917 99.7493 70.9167 101.624C73 103.999 74.7084 106.666 76.9167 108.916C79.6667 111.791 82.5 114.624 85.625 116.999C89.875 120.208 92.9584 120.041 96.7084 116.249C100.292 112.624 103.75 108.708 106.708 104.541C113 95.5826 118.958 86.4576 124.917 77.2909C126.333 75.1243 127.875 73.6243 130.5 74.1243C133 74.5826 133.792 76.6243 134.125 78.9159C134.708 82.9993 135.125 87.1659 135.917 91.2076C136.625 94.7493 137.417 98.3743 138.75 101.708C142.292 110.624 147.792 113.458 157.208 111.833C164.292 110.624 170.917 108.083 177.208 104.708C181.75 102.291 186.125 99.5826 190.542 96.9993C192.875 95.6243 195.292 94.2076 197.875 96.2493C200.292 98.2076 199.875 100.958 199.333 103.624C199.083 104.749 198.667 105.833 198.292 106.916C197.5 109.083 196.833 111.333 195.833 113.416C188.5 128.958 193.625 141.749 204.667 153.083C206.708 155.166 209.417 156.624 211.875 158.291C213.083 159.124 214.583 159.624 215.667 160.583C216.458 161.249 217.333 162.583 217.125 163.374C216.917 164.249 215.583 165.083 214.708 165.499C212.792 166.374 210.208 166.124 208.375 165.374C204.75 163.874 201.083 162.083 198.083 159.624C191.417 154.208 186.792 147.124 183.417 139.208C180.542 132.458 180.917 125.583 183.125 118.791C184.625 114.374 186.458 110.124 188.5 104.791Z" fill="#FFEA79"/>
</svg>
